# xmcd CD database file
#
# Track frame offsets:
#	150
#	14025
#	27322
#	46575
#	59212
#	71795
#	85912
#	99487
#	112912
#	125225
#	139650
#	159787
#
# Disc length: 2341 seconds
#
# Revision: 3
# Processed by: cddbd v1.5PL3 Copyright (c) Steve Scherf et al.
# Submitted via: CDex 1.51
#
DISCID=a409230c
DTITLE=The Cox Family - Everybody's Reaching out for Someone
DYEAR=1993
DGENRE=Bluegrass
TTITLE0=Standing By the Bedside of a Neighbor
TTITLE1=Look Me Up By the Ocean Door
TTITLE2=Everybody's Reaching Out For Someone
TTITLE3=Little White Washed Chimney
TTITLE4=Cry Baby Cry
TTITLE5=I've Got That Old Feeling
TTITLE6=But I Do
TTITLE7=Why Not Confess
TTITLE8=Pardon Me
TTITLE9=My Favorite Memory
TTITLE10=When God Dips His Pen of Love in My Heart
TTITLE11=Backroads
EXTD=YEAR: 1993
EXTT0=
EXTT1=
EXTT2=
EXTT3=
EXTT4=
EXTT5=
EXTT6=
EXTT7=
EXTT8=
EXTT9=
EXTT10=
EXTT11=
PLAYORDER=
